<?xml version="1.0" standalone="no"?>
<!DOCTYPE svg PUBLIC "-//W3C//DTD SVG 20010904//EN"
 "http://www.w3.org/TR/2001/REC-SVG-20010904/DTD/svg10.dtd">
<svg version="1.0" xmlns="http://www.w3.org/2000/svg"
 width="190.000000pt" height="87.000000pt" viewBox="0 0 190.000000 87.000000"
 preserveAspectRatio="xMidYMid meet">
<metadata>
Created by potrace 1.16, written by Peter Selinger 2001-2019
</metadata>
<g transform="translate(0.000000,87.000000) scale(0.100000,-0.100000)"
fill="#000000" stroke="none">
<path d="M0 435 l0 -435 563 0 562 0 -3 65 c-2 36 1 79 7 95 8 24 7 30 -5 30
-7 0 -14 7 -14 15 0 12 16 15 88 15 117 0 122 -5 122 -128 l0 -92 40 0 c28 0
38 4 34 13 -3 8 9 18 31 26 39 14 48 34 43 102 -3 39 -6 44 -28 44 -16 0 -25
6 -25 15 0 11 12 15 44 15 42 0 45 -2 54 -34 4 -19 7 -67 5 -108 -3 -64 -1
-73 15 -73 15 0 17 12 17 110 0 103 1 110 20 110 19 0 20 -7 20 -110 0 -102 1
-110 19 -110 18 0 20 9 23 95 2 71 0 95 -9 95 -7 0 -13 7 -13 15 0 12 16 15
85 15 117 0 125 -9 125 -130 l0 -90 40 0 40 0 0 435 0 435 -950 0 -950 0 0
-435z"/>
<path d="M1177 183 c-4 -3 -7 -39 -7 -80 l0 -73 55 0 55 0 0 68 c0 40 -5 73
-12 80 -13 13 -80 17 -91 5z"/>
<path d="M1676 174 c-3 -9 -6 -51 -6 -95 l0 -79 55 0 55 0 0 79 c0 59 -4 84
-16 95 -21 21 -80 21 -88 0z"/>
</g>
</svg>
